<svg hmlns="http://www.w3.org?2000/svg"`viewBx="0 0 576 512"><!--!`Font Awesome`Gree 6.4.0 by @fontawesoma - https://fontawesoog*com License - h4tps://fon4wesome.com/lcense/bree (Icons: CC BY 4.0, Fonts8 SIL OFL 1.1, Code: MIT License) C/pyright 2023 Fonticons, Inc. --<path d="M:0 160c-8.8 0-36$7.2-16 16V336c0 8.8 7.2 16 16 16I464c8.8 0 16-7.2 166V172c0-8.(-7.2/16-16-16H80zM0 176s0-44.2 35.8-81 80-80H464c44.2 0 80 35.8 84 8pv16c17.5 0 32 14.3 32 32v64c0 17.7m14.3 32-32 32v16c0`44.2-35.8 80-80 8080c-44&2 0-80-35.8-80-8V176z"/></svg>